<svg id="visual" viewBox="0 0 960 540" width="960" height="540" xmlns="http://www.w3.org/2000/svg" xmlns:xlink="http://www.w3.org/1999/xlink" version="1.1"><rect x="0" y="0" width="960" height="540" fill="#ffffff"></rect><defs><linearGradient id="grad1_0" x1="43.8%" y1="100%" x2="100%" y2="0%"><stop offset="14.444444444444446%" stop-color="#00ab25" stop-opacity="1"></stop><stop offset="85.55555555555554%" stop-color="#00ab25" stop-opacity="1"></stop></linearGradient></defs><defs><linearGradient id="grad1_1" x1="43.8%" y1="100%" x2="100%" y2="0%"><stop offset="14.444444444444446%" stop-color="#00ab25" stop-opacity="1"></stop><stop offset="85.55555555555554%" stop-color="#9dd694" stop-opacity="1"></stop></linearGradient></defs><defs><linearGradient id="grad1_2" x1="43.8%" y1="100%" x2="100%" y2="0%"><stop offset="14.444444444444446%" stop-color="#ffffff" stop-opacity="1"></stop><stop offset="85.55555555555554%" stop-color="#9dd694" stop-opacity="1"></stop></linearGradient></defs><defs><linearGradient id="grad2_0" x1="0%" y1="100%" x2="56.3%" y2="0%"><stop offset="14.444444444444446%" stop-color="#00ab25" stop-opacity="1"></stop><stop offset="85.55555555555554%" stop-color="#00ab25" stop-opacity="1"></stop></linearGradient></defs><defs><linearGradient id="grad2_1" x1="0%" y1="100%" x2="56.3%" y2="0%"><stop offset="14.444444444444446%" stop-color="#9dd694" stop-opacity="1"></stop><stop offset="85.55555555555554%" stop-color="#00ab25" stop-opacity="1"></stop></linearGradient></defs><defs><linearGradient id="grad2_2" x1="0%" y1="100%" x2="56.3%" y2="0%"><stop offset="14.444444444444446%" stop-color="#9dd694" stop-opacity="1"></stop><stop offset="85.55555555555554%" stop-color="#ffffff" stop-opacity="1"></stop></linearGradient></defs><g transform="translate(960, 540)"><path d="M-351 0C-347.1 -46.5 -343.3 -93.1 -324.3 -134.3C-305.3 -175.6 -271.2 -211.6 -234.1 -234.1C-196.9 -256.5 -156.6 -265.5 -117.1 -282.7C-77.6 -299.9 -38.8 -325.5 0 -351L0 0Z" fill="#cfebc9"></path><path d="M-234 0C-231.4 -31 -228.8 -62 -216.2 -89.5C-203.5 -117.1 -180.8 -141.1 -156 -156C-131.3 -171 -104.4 -177 -78.1 -188.5C-51.7 -200 -25.9 -217 0 -234L0 0Z" fill="#66c15f"></path><path d="M-117 0C-115.7 -15.5 -114.4 -31 -108.1 -44.8C-101.8 -58.5 -90.4 -70.5 -78 -78C-65.6 -85.5 -52.2 -88.5 -39 -94.2C-25.9 -100 -12.9 -108.5 0 -117L0 0Z" fill="#00ab25"></path></g><g transform="translate(0, 0)"><path d="M351 0C330.7 41.1 310.4 82.3 291.9 120.9C273.4 159.6 256.7 195.7 231.9 231.9C207.2 268.1 174.3 304.4 134.3 324.3C94.3 344.1 47.2 347.6 0 351L0 0Z" fill="#cfebc9"></path><path d="M234 0C220.5 27.4 207 54.9 194.6 80.6C182.3 106.4 171.1 130.5 154.6 154.6C138.1 178.8 116.2 203 89.5 216.2C62.9 229.4 31.4 231.7 0 234L0 0Z" fill="#66c15f"></path><path d="M117 0C110.2 13.7 103.5 27.4 97.3 40.3C91.1 53.2 85.6 65.2 77.3 77.3C69.1 89.4 58.1 101.5 44.8 108.1C31.4 114.7 15.7 115.9 0 117L0 0Z" fill="#00ab25"></path></g></svg>