<svg id="visual" viewBox="0 0 450 900" width="450" height="900" xmlns="http://www.w3.org/2000/svg" xmlns:xlink="http://www.w3.org/1999/xlink" version="1.1"><rect x="0" y="0" width="450" height="900" fill="#ffffff"></rect><defs><linearGradient id="grad1_0" x1="0%" y1="100%" x2="100%" y2="0%"><stop offset="30%" stop-color="#00ab25" stop-opacity="1"></stop><stop offset="70%" stop-color="#00ab25" stop-opacity="1"></stop></linearGradient></defs><defs><linearGradient id="grad1_1" x1="0%" y1="100%" x2="100%" y2="0%"><stop offset="30%" stop-color="#00ab25" stop-opacity="1"></stop><stop offset="70%" stop-color="#9dd694" stop-opacity="1"></stop></linearGradient></defs><defs><linearGradient id="grad1_2" x1="0%" y1="100%" x2="100%" y2="0%"><stop offset="30%" stop-color="#ffffff" stop-opacity="1"></stop><stop offset="70%" stop-color="#9dd694" stop-opacity="1"></stop></linearGradient></defs><defs><linearGradient id="grad2_0" x1="0%" y1="100%" x2="100%" y2="0%"><stop offset="30%" stop-color="#00ab25" stop-opacity="1"></stop><stop offset="70%" stop-color="#00ab25" stop-opacity="1"></stop></linearGradient></defs><defs><linearGradient id="grad2_1" x1="0%" y1="100%" x2="100%" y2="0%"><stop offset="30%" stop-color="#9dd694" stop-opacity="1"></stop><stop offset="70%" stop-color="#00ab25" stop-opacity="1"></stop></linearGradient></defs><defs><linearGradient id="grad2_2" x1="0%" y1="100%" x2="100%" y2="0%"><stop offset="30%" stop-color="#9dd694" stop-opacity="1"></stop><stop offset="70%" stop-color="#ffffff" stop-opacity="1"></stop></linearGradient></defs><g transform="translate(450, 900)"><path d="M-292.5 0C-275.5 -33.5 -258.6 -66.9 -245.8 -101.8C-232.9 -136.7 -224.2 -173 -202.9 -202.9C-181.7 -232.9 -147.9 -256.4 -111.9 -270.2C-76 -284.1 -38 -288.3 0 -292.5L0 0Z" fill="#cfebc9"></path><path d="M-195 0C-183.7 -22.3 -172.4 -44.6 -163.8 -67.9C-155.3 -91.1 -149.5 -115.3 -135.3 -135.3C-121.1 -155.2 -98.6 -170.9 -74.6 -180.2C-50.7 -189.4 -25.3 -192.2 0 -195L0 0Z" fill="#66c15f"></path><path d="M-97.5 0C-91.8 -11.2 -86.2 -22.3 -81.9 -33.9C-77.6 -45.6 -74.7 -57.7 -67.6 -67.6C-60.6 -77.6 -49.3 -85.5 -37.3 -90.1C-25.3 -94.7 -12.7 -96.1 0 -97.5L0 0Z" fill="#00ab25"></path></g><g transform="translate(0, 0)"><path d="M292.5 0C279.8 34.6 267.1 69.2 255 105.6C242.9 142 231.4 180.3 206.8 206.8C182.2 233.4 144.6 248.2 107.9 260.5C71.3 272.9 35.6 282.7 0 292.5L0 0Z" fill="#cfebc9"></path><path d="M195 0C186.5 23.1 178.1 46.1 170 70.4C161.9 94.7 154.3 120.2 137.9 137.9C121.5 155.6 96.4 165.5 71.9 173.7C47.5 181.9 23.8 188.5 0 195L0 0Z" fill="#66c15f"></path><path d="M97.5 0C93.3 11.5 89 23.1 85 35.2C81 47.3 77.1 60.1 68.9 68.9C60.7 77.8 48.2 82.7 36 86.8C23.8 91 11.9 94.2 0 97.5L0 0Z" fill="#00ab25"></path></g></svg>