<svg id="visual" viewBox="0 0 675 900" width="675" height="900" xmlns="http://www.w3.org/2000/svg" xmlns:xlink="http://www.w3.org/1999/xlink" version="1.1"><rect x="0" y="0" width="675" height="900" fill="#ffffff"></rect><defs><linearGradient id="grad1_0" x1="0%" y1="100%" x2="100%" y2="0%"><stop offset="30%" stop-color="#00ab25" stop-opacity="1"></stop><stop offset="70%" stop-color="#00ab25" stop-opacity="1"></stop></linearGradient></defs><defs><linearGradient id="grad1_1" x1="0%" y1="100%" x2="100%" y2="0%"><stop offset="30%" stop-color="#00ab25" stop-opacity="1"></stop><stop offset="70%" stop-color="#9dd694" stop-opacity="1"></stop></linearGradient></defs><defs><linearGradient id="grad1_2" x1="0%" y1="100%" x2="100%" y2="0%"><stop offset="30%" stop-color="#ffffff" stop-opacity="1"></stop><stop offset="70%" stop-color="#9dd694" stop-opacity="1"></stop></linearGradient></defs><defs><linearGradient id="grad2_0" x1="0%" y1="100%" x2="100%" y2="0%"><stop offset="30%" stop-color="#00ab25" stop-opacity="1"></stop><stop offset="70%" stop-color="#00ab25" stop-opacity="1"></stop></linearGradient></defs><defs><linearGradient id="grad2_1" x1="0%" y1="100%" x2="100%" y2="0%"><stop offset="30%" stop-color="#9dd694" stop-opacity="1"></stop><stop offset="70%" stop-color="#00ab25" stop-opacity="1"></stop></linearGradient></defs><defs><linearGradient id="grad2_2" x1="0%" y1="100%" x2="100%" y2="0%"><stop offset="30%" stop-color="#9dd694" stop-opacity="1"></stop><stop offset="70%" stop-color="#ffffff" stop-opacity="1"></stop></linearGradient></defs><g transform="translate(675, 900)"><path d="M-365.6 0C-337.8 -39.9 -309.9 -79.8 -291.9 -120.9C-274 -162 -266 -204.3 -243.2 -243.2C-220.5 -282.2 -182.9 -317.9 -139.9 -337.8C-96.9 -357.6 -48.5 -361.6 0 -365.6L0 0Z" fill="#cfebc9"></path><path d="M-243.7 0C-225.2 -26.6 -206.6 -53.2 -194.6 -80.6C-182.7 -108 -177.3 -136.2 -162.2 -162.2C-147 -188.2 -121.9 -212 -93.3 -225.2C-64.6 -238.4 -32.3 -241.1 0 -243.7L0 0Z" fill="#66c15f"></path><path d="M-121.9 0C-112.6 -13.3 -103.3 -26.6 -97.3 -40.3C-91.3 -54 -88.7 -68.1 -81.1 -81.1C-73.5 -94.1 -61 -106 -46.6 -112.6C-32.3 -119.2 -16.2 -120.5 0 -121.9L0 0Z" fill="#00ab25"></path></g><g transform="translate(0, 0)"><path d="M365.6 0C337.7 39 309.8 78 294.7 122.1C279.6 166.1 277.3 215.2 253.9 253.9C230.4 292.5 185.8 320.9 139.9 337.8C94.1 354.7 47 360.2 0 365.6L0 0Z" fill="#cfebc9"></path><path d="M243.8 0C225.1 26 206.5 52 196.5 81.4C186.4 110.7 184.9 143.4 169.2 169.2C153.6 195 123.8 213.9 93.3 225.2C62.7 236.5 31.4 240.1 0 243.8L0 0Z" fill="#66c15f"></path><path d="M121.9 0C112.6 13 103.3 26 98.2 40.7C93.2 55.4 92.4 71.7 84.6 84.6C76.8 97.5 61.9 107 46.6 112.6C31.4 118.2 15.7 120.1 0 121.9L0 0Z" fill="#00ab25"></path></g></svg>