<svg id="visual" viewBox="0 0 900 600" width="900" height="600" xmlns="http://www.w3.org/2000/svg" xmlns:xlink="http://www.w3.org/1999/xlink" version="1.1"><rect x="0" y="0" width="900" height="600" fill="#ffffff"></rect><defs><linearGradient id="grad1_0" x1="33.3%" y1="100%" x2="100%" y2="0%"><stop offset="20%" stop-color="#00ab25" stop-opacity="1"></stop><stop offset="80%" stop-color="#00ab25" stop-opacity="1"></stop></linearGradient></defs><defs><linearGradient id="grad1_1" x1="33.3%" y1="100%" x2="100%" y2="0%"><stop offset="20%" stop-color="#00ab25" stop-opacity="1"></stop><stop offset="80%" stop-color="#9dd694" stop-opacity="1"></stop></linearGradient></defs><defs><linearGradient id="grad1_2" x1="33.3%" y1="100%" x2="100%" y2="0%"><stop offset="20%" stop-color="#ffffff" stop-opacity="1"></stop><stop offset="80%" stop-color="#9dd694" stop-opacity="1"></stop></linearGradient></defs><defs><linearGradient id="grad2_0" x1="0%" y1="100%" x2="66.7%" y2="0%"><stop offset="20%" stop-color="#00ab25" stop-opacity="1"></stop><stop offset="80%" stop-color="#00ab25" stop-opacity="1"></stop></linearGradient></defs><defs><linearGradient id="grad2_1" x1="0%" y1="100%" x2="66.7%" y2="0%"><stop offset="20%" stop-color="#9dd694" stop-opacity="1"></stop><stop offset="80%" stop-color="#00ab25" stop-opacity="1"></stop></linearGradient></defs><defs><linearGradient id="grad2_2" x1="0%" y1="100%" x2="66.7%" y2="0%"><stop offset="20%" stop-color="#9dd694" stop-opacity="1"></stop><stop offset="80%" stop-color="#ffffff" stop-opacity="1"></stop></linearGradient></defs><g transform="translate(900, 600)"><path d="M-351.5 0C-330.9 -39.2 -310.2 -78.4 -296.6 -122.8C-282.9 -167.3 -276.2 -217 -248.6 -248.6C-220.9 -280.1 -172.4 -293.5 -127.4 -307.7C-82.5 -321.8 -41.3 -336.7 0 -351.5L0 0Z" fill="#cfebc9"></path><path d="M-234.4 0C-220.6 -26.1 -206.8 -52.3 -197.7 -81.9C-188.6 -111.5 -184.1 -144.7 -165.7 -165.7C-147.3 -186.8 -114.9 -195.7 -85 -205.1C-55 -214.5 -27.5 -224.4 0 -234.4L0 0Z" fill="#66c15f"></path><path d="M-117.2 0C-110.3 -13.1 -103.4 -26.1 -98.9 -40.9C-94.3 -55.8 -92.1 -72.3 -82.9 -82.9C-73.6 -93.4 -57.5 -97.8 -42.5 -102.6C-27.5 -107.3 -13.8 -112.2 0 -117.2L0 0Z" fill="#00ab25"></path></g><g transform="translate(0, 0)"><path d="M351.5 0C346.6 45.6 341.7 91.2 324.8 134.5C307.9 177.9 278.9 219 241.8 241.8C204.7 264.7 159.5 269.3 117.9 284.6C76.2 299.8 38.1 325.7 0 351.5L0 0Z" fill="#cfebc9"></path><path d="M234.4 0C231.1 30.4 227.8 60.8 216.5 89.7C205.2 118.6 185.9 146 161.2 161.2C136.5 176.5 106.4 179.5 78.6 189.7C50.8 199.9 25.4 217.1 0 234.4L0 0Z" fill="#66c15f"></path><path d="M117.2 0C115.5 15.2 113.9 30.4 108.3 44.8C102.6 59.3 93 73 80.6 80.6C68.2 88.2 53.2 89.8 39.3 94.9C25.4 99.9 12.7 108.6 0 117.2L0 0Z" fill="#00ab25"></path></g></svg>